<svg width="634" height="144" viewBox="0 0 634 144" fill="none" xmlns="http://www.w3.org/2000/svg">
<path d="M344.296 129.182C344.296 130.3 344.127 131.347 343.79 132.324C343.453 133.3 342.965 134.152 342.325 134.88C341.686 135.599 340.905 136.167 339.982 136.584C339.059 137.001 338.012 137.21 336.84 137.21C335.944 137.21 335.118 137.037 334.364 136.691C333.618 136.336 332.979 135.794 332.446 135.066V144H327.946V121.526H329.677L331.674 124.868C331.87 124.309 332.136 123.803 332.473 123.35C332.819 122.888 333.214 122.498 333.658 122.178C334.111 121.85 334.603 121.597 335.136 121.419C335.677 121.242 336.245 121.153 336.84 121.153C338.012 121.153 339.059 121.362 339.982 121.779C340.905 122.196 341.686 122.769 342.325 123.496C342.965 124.215 343.453 125.063 343.79 126.039C344.127 127.016 344.296 128.063 344.296 129.182ZM339.729 129.182C339.729 128.791 339.707 128.378 339.663 127.943C339.627 127.5 339.561 127.06 339.463 126.625C339.365 126.19 339.228 125.773 339.05 125.374C338.882 124.974 338.664 124.624 338.398 124.322C338.132 124.011 337.808 123.767 337.426 123.59C337.053 123.403 336.618 123.31 336.121 123.31C335.606 123.31 335.158 123.399 334.776 123.576C334.404 123.754 334.08 123.998 333.805 124.309C333.538 124.61 333.316 124.961 333.139 125.36C332.97 125.751 332.837 126.164 332.739 126.599C332.642 127.034 332.571 127.473 332.526 127.917C332.491 128.36 332.473 128.782 332.473 129.182C332.473 129.537 332.5 129.932 332.553 130.366C332.606 130.793 332.691 131.223 332.806 131.658C332.921 132.093 333.072 132.514 333.259 132.923C333.445 133.331 333.671 133.695 333.938 134.014C334.213 134.334 334.528 134.591 334.883 134.787C335.247 134.973 335.66 135.066 336.121 135.066C336.627 135.066 337.066 134.978 337.439 134.8C337.812 134.614 338.132 134.37 338.398 134.068C338.664 133.757 338.882 133.402 339.05 133.003C339.228 132.603 339.365 132.186 339.463 131.751C339.561 131.316 339.627 130.877 339.663 130.433C339.707 129.989 339.729 129.572 339.729 129.182Z" fill="#23404E"/>
<path d="M358.637 122.884L356.107 127.078C356.001 126.723 355.863 126.323 355.694 125.88C355.526 125.436 355.317 125.023 355.069 124.641C354.82 124.251 354.523 123.927 354.177 123.67C353.83 123.403 353.431 123.27 352.978 123.27C352.561 123.27 352.197 123.377 351.887 123.59C351.585 123.803 351.327 124.082 351.114 124.428C350.901 124.766 350.724 125.152 350.582 125.587C350.449 126.013 350.342 126.448 350.262 126.891C350.191 127.326 350.142 127.748 350.116 128.156C350.089 128.556 350.076 128.902 350.076 129.195V136.904H345.562V121.526H347.293L349.117 125.107C349.366 124.53 349.65 124.002 349.969 123.523C350.289 123.035 350.657 122.618 351.074 122.272C351.492 121.916 351.962 121.641 352.486 121.446C353.018 121.251 353.617 121.153 354.283 121.153C354.629 121.153 355.015 121.184 355.441 121.246C355.867 121.3 356.285 121.397 356.693 121.539C357.101 121.672 357.478 121.85 357.825 122.072C358.171 122.294 358.441 122.564 358.637 122.884Z" fill="#23404E"/>
<path d="M374.735 129.182C374.735 129.98 374.628 130.73 374.415 131.432C374.202 132.133 373.905 132.781 373.523 133.375C373.151 133.97 372.698 134.507 372.165 134.986C371.633 135.457 371.047 135.856 370.408 136.185C369.778 136.513 369.099 136.766 368.371 136.944C367.652 137.121 366.911 137.21 366.147 137.21C365.384 137.21 364.643 137.121 363.924 136.944C363.205 136.766 362.526 136.513 361.887 136.185C361.257 135.856 360.675 135.457 360.143 134.986C359.61 134.507 359.153 133.97 358.771 133.375C358.399 132.781 358.106 132.133 357.893 131.432C357.68 130.721 357.573 129.971 357.573 129.182C357.573 128.392 357.68 127.646 357.893 126.945C358.106 126.235 358.399 125.582 358.771 124.988C359.153 124.393 359.61 123.86 360.143 123.39C360.675 122.911 361.257 122.507 361.887 122.178C362.526 121.85 363.205 121.597 363.924 121.419C364.643 121.242 365.384 121.153 366.147 121.153C366.911 121.153 367.652 121.242 368.371 121.419C369.099 121.597 369.778 121.85 370.408 122.178C371.047 122.507 371.633 122.911 372.165 123.39C372.698 123.86 373.151 124.393 373.523 124.988C373.905 125.582 374.202 126.235 374.415 126.945C374.628 127.646 374.735 128.392 374.735 129.182ZM370.155 129.182C370.155 128.755 370.128 128.307 370.075 127.837C370.031 127.357 369.951 126.891 369.835 126.439C369.72 125.977 369.56 125.538 369.356 125.121C369.161 124.695 368.917 124.326 368.624 124.016C368.331 123.696 367.98 123.443 367.572 123.257C367.164 123.061 366.689 122.964 366.147 122.964C365.633 122.964 365.176 123.061 364.776 123.257C364.377 123.452 364.026 123.714 363.724 124.042C363.431 124.362 363.183 124.735 362.979 125.161C362.783 125.587 362.624 126.031 362.499 126.492C362.375 126.945 362.286 127.406 362.233 127.877C362.18 128.338 362.153 128.773 362.153 129.182C362.153 129.59 362.18 130.029 362.233 130.5C362.286 130.961 362.375 131.423 362.499 131.884C362.624 132.346 362.783 132.79 362.979 133.216C363.183 133.633 363.431 134.006 363.724 134.334C364.026 134.654 364.377 134.911 364.776 135.106C365.176 135.302 365.633 135.399 366.147 135.399C366.68 135.399 367.15 135.306 367.559 135.12C367.967 134.924 368.318 134.667 368.611 134.347C368.912 134.028 369.161 133.659 369.356 133.242C369.551 132.825 369.707 132.386 369.822 131.924C369.946 131.463 370.031 130.997 370.075 130.526C370.128 130.056 370.155 129.608 370.155 129.182Z" fill="#23404E"/>
<path d="M391.432 135.053C391.432 136.278 391.25 137.432 390.887 138.515C390.523 139.598 389.994 140.543 389.302 141.351C388.61 142.167 387.758 142.811 386.746 143.281C385.743 143.76 384.598 144 383.311 144C382.601 144 381.882 143.92 381.154 143.76C380.435 143.601 379.752 143.352 379.104 143.015C378.465 142.686 377.888 142.265 377.373 141.75C376.867 141.244 376.467 140.645 376.175 139.953L378.118 139.22C378.287 139.655 378.504 140.055 378.771 140.419C379.046 140.782 379.361 141.093 379.716 141.351C380.071 141.617 380.462 141.821 380.888 141.963C381.314 142.114 381.762 142.189 382.232 142.189C383.12 142.189 383.861 142.007 384.456 141.643C385.059 141.28 385.543 140.805 385.907 140.219C386.271 139.633 386.533 138.967 386.693 138.222C386.852 137.485 386.932 136.735 386.932 135.972V135.066C386.4 135.794 385.756 136.336 385.002 136.691C384.256 137.037 383.435 137.21 382.539 137.21C381.367 137.21 380.32 137.001 379.397 136.584C378.473 136.167 377.692 135.599 377.053 134.88C376.414 134.152 375.926 133.3 375.589 132.324C375.251 131.347 375.083 130.3 375.083 129.182C375.083 128.063 375.251 127.016 375.589 126.039C375.926 125.063 376.414 124.215 377.053 123.496C377.692 122.769 378.473 122.196 379.397 121.779C380.32 121.362 381.367 121.153 382.539 121.153C383.133 121.153 383.697 121.242 384.229 121.419C384.771 121.597 385.264 121.85 385.707 122.178C386.16 122.498 386.555 122.888 386.892 123.35C387.238 123.803 387.509 124.309 387.704 124.868L389.702 121.526H391.432V135.053ZM386.906 129.182C386.906 128.782 386.883 128.36 386.839 127.917C386.804 127.473 386.737 127.034 386.639 126.599C386.542 126.164 386.404 125.751 386.227 125.36C386.058 124.961 385.836 124.61 385.561 124.309C385.295 123.998 384.971 123.754 384.589 123.576C384.207 123.399 383.764 123.31 383.258 123.31C382.752 123.31 382.312 123.403 381.939 123.59C381.567 123.767 381.247 124.011 380.981 124.322C380.715 124.624 380.493 124.974 380.315 125.374C380.147 125.773 380.013 126.19 379.916 126.625C379.818 127.06 379.747 127.5 379.703 127.943C379.667 128.378 379.649 128.791 379.649 129.182C379.649 129.572 379.667 129.989 379.703 130.433C379.747 130.877 379.818 131.316 379.916 131.751C380.013 132.186 380.147 132.603 380.315 133.003C380.493 133.402 380.715 133.757 380.981 134.068C381.247 134.37 381.567 134.614 381.939 134.8C382.312 134.978 382.752 135.066 383.258 135.066C383.719 135.066 384.127 134.973 384.482 134.787C384.846 134.591 385.161 134.334 385.428 134.014C385.703 133.695 385.934 133.331 386.12 132.923C386.306 132.514 386.457 132.093 386.573 131.658C386.688 131.223 386.772 130.793 386.826 130.366C386.879 129.932 386.906 129.537 386.906 129.182Z" fill="#23404E"/>
<path d="M406.639 122.884L404.109 127.078C404.002 126.723 403.865 126.323 403.696 125.88C403.528 125.436 403.319 125.023 403.07 124.641C402.822 124.251 402.525 123.927 402.178 123.67C401.832 123.403 401.433 123.27 400.98 123.27C400.563 123.27 400.199 123.377 399.888 123.59C399.587 123.803 399.329 124.082 399.116 124.428C398.903 124.766 398.726 125.152 398.584 125.587C398.45 126.013 398.344 126.448 398.264 126.891C398.193 127.326 398.144 127.748 398.118 128.156C398.091 128.556 398.078 128.902 398.078 129.195V136.904H393.564V121.526H395.295L397.119 125.107C397.368 124.53 397.652 124.002 397.971 123.523C398.291 123.035 398.659 122.618 399.076 122.272C399.493 121.916 399.964 121.641 400.488 121.446C401.02 121.251 401.619 121.153 402.285 121.153C402.631 121.153 403.017 121.184 403.443 121.246C403.869 121.3 404.286 121.397 404.695 121.539C405.103 121.672 405.48 121.85 405.826 122.072C406.173 122.294 406.443 122.564 406.639 122.884Z" fill="#23404E"/>
<path d="M422.058 136.904H417.558V135.066C417.025 135.794 416.382 136.336 415.627 136.691C414.882 137.037 414.061 137.21 413.164 137.21C411.992 137.21 410.945 137.001 410.022 136.584C409.099 136.167 408.318 135.599 407.679 134.88C407.04 134.152 406.551 133.3 406.214 132.324C405.877 131.347 405.708 130.3 405.708 129.182C405.708 128.063 405.877 127.016 406.214 126.039C406.551 125.063 407.04 124.215 407.679 123.496C408.318 122.769 409.099 122.196 410.022 121.779C410.945 121.362 411.992 121.153 413.164 121.153C413.759 121.153 414.322 121.242 414.855 121.419C415.396 121.597 415.889 121.85 416.333 122.178C416.785 122.498 417.18 122.888 417.518 123.35C417.864 123.803 418.135 124.309 418.33 124.868L420.327 121.526H422.058V136.904ZM417.531 129.182C417.531 128.782 417.509 128.36 417.464 127.917C417.429 127.473 417.362 127.034 417.265 126.599C417.167 126.164 417.03 125.751 416.852 125.36C416.683 124.961 416.461 124.61 416.186 124.309C415.92 123.998 415.596 123.754 415.214 123.576C414.833 123.399 414.389 123.31 413.883 123.31C413.377 123.31 412.938 123.403 412.565 123.59C412.192 123.767 411.873 124.011 411.606 124.322C411.34 124.624 411.118 124.974 410.941 125.374C410.772 125.773 410.639 126.19 410.541 126.625C410.444 127.06 410.373 127.5 410.328 127.943C410.293 128.378 410.275 128.791 410.275 129.182C410.275 129.572 410.293 129.989 410.328 130.433C410.373 130.877 410.444 131.316 410.541 131.751C410.639 132.186 410.772 132.603 410.941 133.003C411.118 133.402 411.34 133.757 411.606 134.068C411.873 134.37 412.192 134.614 412.565 134.8C412.938 134.978 413.377 135.066 413.883 135.066C414.345 135.066 414.753 134.973 415.108 134.787C415.472 134.591 415.787 134.334 416.053 134.014C416.328 133.695 416.559 133.331 416.746 132.923C416.932 132.514 417.083 132.093 417.198 131.658C417.314 131.223 417.398 130.793 417.451 130.366C417.504 129.932 417.531 129.537 417.531 129.182Z" fill="#23404E"/>
<path d="M447.982 127.93C447.982 128.986 447.858 130.087 447.609 131.232C447.36 132.377 447.01 133.495 446.557 134.587C446.113 135.67 445.576 136.695 444.946 137.663C444.316 138.63 443.615 139.469 442.843 140.179L441.152 139.26C441.409 138.799 441.644 138.279 441.857 137.702C442.07 137.126 442.266 136.518 442.443 135.878C442.621 135.239 442.776 134.583 442.909 133.908C443.042 133.233 443.153 132.563 443.242 131.898C443.34 131.223 443.411 130.571 443.455 129.94C443.499 129.31 443.522 128.72 443.522 128.17C443.522 127.859 443.513 127.522 443.495 127.158C443.477 126.794 443.437 126.43 443.375 126.066C443.322 125.702 443.238 125.356 443.122 125.028C443.007 124.69 442.847 124.393 442.643 124.135C442.448 123.869 442.199 123.661 441.897 123.51C441.604 123.35 441.249 123.27 440.832 123.27C440.424 123.27 440.073 123.381 439.78 123.603C439.496 123.816 439.252 124.096 439.048 124.442C438.844 124.788 438.68 125.178 438.555 125.613C438.44 126.048 438.351 126.488 438.289 126.931C438.227 127.366 438.183 127.784 438.156 128.183C438.138 128.582 438.129 128.92 438.129 129.195V136.904H433.643V129.741C433.643 129.43 433.647 129.057 433.656 128.622C433.665 128.179 433.651 127.717 433.616 127.238C433.589 126.758 433.532 126.283 433.443 125.813C433.363 125.334 433.23 124.908 433.043 124.535C432.866 124.162 432.622 123.86 432.311 123.63C432.001 123.39 431.61 123.27 431.14 123.27C430.74 123.27 430.403 123.381 430.128 123.603C429.861 123.825 429.635 124.113 429.449 124.468C429.271 124.815 429.129 125.209 429.023 125.653C428.925 126.088 428.85 126.528 428.796 126.971C428.752 127.406 428.725 127.823 428.716 128.223C428.708 128.613 428.703 128.937 428.703 129.195V136.904H424.19V121.526H425.92L427.571 125.107C427.944 123.865 428.53 122.897 429.329 122.205C430.137 121.504 431.206 121.153 432.538 121.153C433.736 121.153 434.73 121.402 435.52 121.899C436.31 122.396 436.931 123.204 437.384 124.322C437.641 123.834 437.925 123.394 438.236 123.004C438.555 122.613 438.906 122.28 439.288 122.005C439.678 121.73 440.109 121.522 440.579 121.379C441.05 121.229 441.569 121.153 442.137 121.153C443.184 121.153 444.076 121.326 444.813 121.672C445.559 122.01 446.167 122.48 446.637 123.084C447.108 123.687 447.449 124.406 447.662 125.241C447.875 126.066 447.982 126.963 447.982 127.93Z" fill="#23404E"/>
<path d="M464.826 136.904H460.325V135.066C459.793 135.794 459.149 136.336 458.395 136.691C457.649 137.037 456.828 137.21 455.932 137.21C454.76 137.21 453.713 137.001 452.79 136.584C451.867 136.167 451.086 135.599 450.446 134.88C449.807 134.152 449.319 133.3 448.982 132.324C448.645 131.347 448.476 130.3 448.476 129.182C448.476 128.063 448.645 127.016 448.982 126.039C449.319 125.063 449.807 124.215 450.446 123.496C451.086 122.769 451.867 122.196 452.79 121.779C453.713 121.362 454.76 121.153 455.932 121.153C456.527 121.153 457.09 121.242 457.623 121.419C458.164 121.597 458.657 121.85 459.101 122.178C459.553 122.498 459.948 122.888 460.286 123.35C460.632 123.803 460.902 124.309 461.098 124.868L463.095 121.526H464.826V136.904ZM460.299 129.182C460.299 128.782 460.277 128.36 460.232 127.917C460.197 127.473 460.13 127.034 460.033 126.599C459.935 126.164 459.797 125.751 459.62 125.36C459.451 124.961 459.229 124.61 458.954 124.309C458.688 123.998 458.364 123.754 457.982 123.576C457.601 123.399 457.157 123.31 456.651 123.31C456.145 123.31 455.706 123.403 455.333 123.59C454.96 123.767 454.64 124.011 454.374 124.322C454.108 124.624 453.886 124.974 453.708 125.374C453.54 125.773 453.407 126.19 453.309 126.625C453.211 127.06 453.14 127.5 453.096 127.943C453.06 128.378 453.043 128.791 453.043 129.182C453.043 129.572 453.06 129.989 453.096 130.433C453.14 130.877 453.211 131.316 453.309 131.751C453.407 132.186 453.54 132.603 453.708 133.003C453.886 133.402 454.108 133.757 454.374 134.068C454.64 134.37 454.96 134.614 455.333 134.8C455.706 134.978 456.145 135.066 456.651 135.066C457.112 135.066 457.521 134.973 457.876 134.787C458.24 134.591 458.555 134.334 458.821 134.014C459.096 133.695 459.327 133.331 459.513 132.923C459.7 132.514 459.851 132.093 459.966 131.658C460.081 131.223 460.166 130.793 460.219 130.366C460.272 129.932 460.299 129.537 460.299 129.182Z" fill="#23404E"/>
<path d="M482.455 136.904H480.724L478.727 133.562C478.532 134.121 478.261 134.627 477.915 135.08C477.578 135.532 477.183 135.923 476.73 136.251C476.286 136.571 475.794 136.819 475.252 136.997C474.72 137.174 474.156 137.263 473.561 137.263C472.39 137.263 471.342 137.055 470.419 136.637C469.496 136.22 468.715 135.652 468.076 134.933C467.437 134.205 466.949 133.353 466.611 132.377C466.274 131.401 466.105 130.353 466.105 129.235C466.105 128.116 466.274 127.069 466.611 126.093C466.949 125.116 467.437 124.269 468.076 123.55C468.715 122.831 469.496 122.263 470.419 121.845C471.342 121.428 472.39 121.22 473.561 121.22C474.458 121.22 475.279 121.393 476.024 121.739C476.779 122.085 477.422 122.627 477.955 123.363V115.867H482.455V136.904ZM477.928 129.235C477.928 128.88 477.902 128.489 477.848 128.063C477.795 127.637 477.711 127.207 477.595 126.772C477.48 126.337 477.329 125.915 477.143 125.507C476.956 125.099 476.726 124.735 476.45 124.415C476.184 124.096 475.869 123.843 475.505 123.656C475.15 123.461 474.742 123.363 474.28 123.363C473.774 123.363 473.335 123.456 472.962 123.643C472.589 123.82 472.27 124.064 472.003 124.375C471.737 124.677 471.515 125.028 471.338 125.427C471.169 125.826 471.036 126.244 470.938 126.678C470.841 127.113 470.77 127.553 470.725 127.997C470.69 128.431 470.672 128.844 470.672 129.235C470.672 129.625 470.69 130.042 470.725 130.486C470.77 130.921 470.841 131.356 470.938 131.791C471.036 132.226 471.169 132.648 471.338 133.056C471.515 133.455 471.737 133.81 472.003 134.121C472.27 134.423 472.589 134.667 472.962 134.853C473.335 135.031 473.774 135.12 474.28 135.12C474.786 135.12 475.23 135.031 475.612 134.853C475.993 134.676 476.317 134.436 476.584 134.134C476.859 133.824 477.081 133.473 477.249 133.083C477.427 132.683 477.564 132.266 477.662 131.831C477.76 131.387 477.826 130.943 477.862 130.5C477.906 130.056 477.928 129.634 477.928 129.235Z" fill="#23404E"/>
<path d="M500.817 129.182C500.817 129.98 500.71 130.73 500.497 131.432C500.284 132.133 499.987 132.781 499.605 133.375C499.232 133.97 498.78 134.507 498.247 134.986C497.714 135.457 497.129 135.856 496.49 136.185C495.859 136.513 495.18 136.766 494.453 136.944C493.734 137.121 492.992 137.21 492.229 137.21C491.466 137.21 490.725 137.121 490.006 136.944C489.287 136.766 488.608 136.513 487.969 136.185C487.338 135.856 486.757 135.457 486.224 134.986C485.692 134.507 485.235 133.97 484.853 133.375C484.48 132.781 484.187 132.133 483.974 131.432C483.761 130.721 483.655 129.971 483.655 129.182C483.655 128.392 483.761 127.646 483.974 126.945C484.187 126.235 484.48 125.582 484.853 124.988C485.235 124.393 485.692 123.86 486.224 123.39C486.757 122.911 487.338 122.507 487.969 122.178C488.608 121.85 489.287 121.597 490.006 121.419C490.725 121.242 491.466 121.153 492.229 121.153C492.992 121.153 493.734 121.242 494.453 121.419C495.18 121.597 495.859 121.85 496.49 122.178C497.129 122.507 497.714 122.911 498.247 123.39C498.78 123.86 499.232 124.393 499.605 124.988C499.987 125.582 500.284 126.235 500.497 126.945C500.71 127.646 500.817 128.392 500.817 129.182ZM496.237 129.182C496.237 128.755 496.21 128.307 496.157 127.837C496.112 127.357 496.032 126.891 495.917 126.439C495.802 125.977 495.642 125.538 495.438 125.121C495.242 124.695 494.998 124.326 494.705 124.016C494.413 123.696 494.062 123.443 493.654 123.257C493.245 123.061 492.771 122.964 492.229 122.964C491.714 122.964 491.257 123.061 490.858 123.257C490.458 123.452 490.108 123.714 489.806 124.042C489.513 124.362 489.264 124.735 489.06 125.161C488.865 125.587 488.705 126.031 488.581 126.492C488.457 126.945 488.368 127.406 488.315 127.877C488.261 128.338 488.235 128.773 488.235 129.182C488.235 129.59 488.261 130.029 488.315 130.5C488.368 130.961 488.457 131.423 488.581 131.884C488.705 132.346 488.865 132.79 489.06 133.216C489.264 133.633 489.513 134.006 489.806 134.334C490.108 134.654 490.458 134.911 490.858 135.106C491.257 135.302 491.714 135.399 492.229 135.399C492.762 135.399 493.232 135.306 493.64 135.12C494.049 134.924 494.399 134.667 494.692 134.347C494.994 134.028 495.242 133.659 495.438 133.242C495.633 132.825 495.788 132.386 495.904 131.924C496.028 131.463 496.112 130.997 496.157 130.526C496.21 130.056 496.237 129.608 496.237 129.182Z" fill="#23404E"/>
<path d="M515.104 122.884L512.574 127.078C512.468 126.723 512.33 126.323 512.162 125.88C511.993 125.436 511.785 125.023 511.536 124.641C511.287 124.251 510.99 123.927 510.644 123.67C510.298 123.403 509.898 123.27 509.446 123.27C509.029 123.27 508.665 123.377 508.354 123.59C508.052 123.803 507.795 124.082 507.582 124.428C507.369 124.766 507.191 125.152 507.049 125.587C506.916 126.013 506.81 126.448 506.73 126.891C506.659 127.326 506.61 127.748 506.583 128.156C506.557 128.556 506.543 128.902 506.543 129.195V136.904H502.03V121.526H503.761L505.585 125.107C505.833 124.53 506.117 124.002 506.437 123.523C506.756 123.035 507.125 122.618 507.542 122.272C507.959 121.916 508.429 121.641 508.953 121.446C509.486 121.251 510.085 121.153 510.75 121.153C511.097 121.153 511.483 121.184 511.909 121.246C512.335 121.3 512.752 121.397 513.16 121.539C513.569 121.672 513.946 121.85 514.292 122.072C514.638 122.294 514.909 122.564 515.104 122.884Z" fill="#23404E"/>
<path d="M159.287 112.82C154.317 112.82 150.175 111.167 146.862 107.862C143.631 104.64 142.016 100.881 142.016 96.5847C142.016 92.2058 143.052 88.1574 145.122 84.4395C147.193 80.6389 150.134 77.1276 153.945 73.9054C157.838 70.6832 162.891 68.0393 169.103 65.9738C175.316 63.8257 182.192 62.6277 189.73 62.3798C194.12 51.5565 198.013 39.4526 201.409 26.0681C201.492 25.5724 201.534 24.9528 201.534 24.2092C201.534 23.383 201.12 22.6807 200.291 22.1024V20.8631C207.415 19.5411 213.918 18.8802 219.799 18.8802L227.254 19.3759C229.408 23.1764 230.609 28.4641 230.858 35.239C231.106 41.9313 231.272 53.5807 231.355 70.1874C240.301 74.0706 247.963 78.9865 254.342 84.9352C254.01 86.0092 253.347 87.0833 252.353 88.1574C251.442 89.1488 250.572 89.8924 249.744 90.3881L248.502 91.1317C243.614 86.3397 237.94 82.25 231.479 78.8626C231.645 83.5719 232.1 87.5377 232.846 90.7599C234.005 96.0476 235.372 98.6915 236.946 98.6915C237.857 98.6915 238.934 98.4849 240.177 98.0718L242.04 102.905C236.325 106.54 230.858 108.358 225.639 108.358C217.024 108.358 212.717 101.872 212.717 88.901V72.666C206.918 71.2615 201.658 70.394 196.936 70.0635C186.168 98.5675 173.618 112.82 159.287 112.82ZM186.623 69.9396C177.263 70.6832 169.476 73.9467 163.264 79.7301C157.051 85.5135 153.945 90.9252 153.945 95.965C153.945 101.005 155.891 103.525 159.784 103.525C167.737 103.525 176.683 92.3297 186.623 69.9396ZM211.35 28.7946C211.184 28.712 210.853 28.6707 210.356 28.6707C209.859 28.6707 209.527 28.712 209.362 28.7946C208.616 35.0738 205.386 46.3514 199.67 62.6277C203.729 62.8755 208.078 63.4539 212.717 64.3627C212.717 44.0381 212.261 32.182 211.35 28.7946Z" fill="#23404E"/>
<path d="M233.299 134.631C232.885 133.64 232.678 131.45 232.678 128.063C232.678 124.676 234.293 115.587 237.524 100.798C240.754 85.9266 242.369 74.4837 242.369 66.4695C242.369 64.8997 241.997 63.2473 241.251 61.5123C240.506 59.6946 239.719 58.2901 238.89 57.2987L237.772 55.9354L237.896 54.3243C241.79 53.085 248.665 52.4654 258.522 52.4654C259.434 54.2004 260.014 56.6377 260.262 59.7773C266.64 54.5722 271.942 51.9696 276.167 51.9696C280.474 51.9696 283.912 53.746 286.48 57.2987C289.13 60.8513 290.456 66.0564 290.456 72.9139C290.456 84.8939 288.261 93.8169 283.87 99.6829C279.48 105.466 273.93 108.358 267.22 108.358C263.741 108.358 260.842 107.862 258.522 106.871L257.28 106.375L258.15 101.542C258.895 101.707 259.765 101.79 260.759 101.79C262.913 101.79 264.777 100.798 266.35 98.8154C268.007 96.8325 269.25 94.3126 270.078 91.2556C271.735 85.1417 272.563 79.4822 272.563 74.2771C272.563 66.8413 271.031 63.1234 267.966 63.1234C265.564 63.1234 262.996 64.0735 260.262 65.9738C259.931 71.7572 258.233 81.8782 255.168 96.3368C252.103 110.795 250.57 122.445 250.57 131.285C246.097 133.103 240.34 134.218 233.299 134.631Z" fill="#23404E"/>
<path d="M289.656 97.5761C289.656 94.0234 290.733 87.9921 292.886 79.4822C295.04 70.8897 296.117 65.6433 296.117 63.743C296.117 61.7602 294.626 59.1576 291.644 55.9354L291.768 54.3243C297.401 53.1676 304.815 52.5893 314.01 52.5893C314.424 53.6634 314.631 55.6049 314.631 58.414C314.631 61.2231 313.471 67.2131 311.152 76.384C308.832 85.5548 307.673 91.2556 307.673 93.4864C307.673 95.7171 308.501 96.8325 310.158 96.8325C312.56 96.8325 315.335 95.965 318.483 94.23C318.814 92.2471 319.642 88.4465 320.968 82.8284C323.95 69.6091 325.441 60.1491 325.441 54.4482C328.34 53.2916 333.559 52.7132 341.097 52.7132H343.458C343.458 56.5964 342.298 64.1975 339.979 75.5165C337.659 86.7528 336.499 93.3625 336.499 95.3454C336.499 97.2456 336.914 98.1958 337.742 98.1958C338.239 98.1958 340.6 97.2043 344.824 95.2214L347.185 99.1872C339.813 105.301 333.352 108.358 327.802 108.358C325.151 108.358 322.873 107.614 320.968 106.127C319.145 104.64 318.11 102.699 317.861 100.303C311.152 105.756 305.063 108.482 299.596 108.482C296.697 108.482 294.295 107.532 292.389 105.632C290.567 103.731 289.656 101.046 289.656 97.5761Z" fill="#23404E"/>
<path d="M346.567 107.243H344.206C344.206 103.36 345.366 95.9237 347.685 84.9352C350.087 73.9467 351.289 67.7088 351.289 66.2217C351.289 63.4952 350.129 60.6035 347.809 57.5465L346.691 56.0593L346.815 54.4482C351.289 53.2089 358.454 52.5893 368.311 52.5893C369.388 53.9938 369.968 56.5551 370.051 60.273C377.258 54.7374 383.346 51.9696 388.316 51.9696C391.298 51.9696 393.659 53.0024 395.399 55.0679C397.221 57.1334 398.132 59.736 398.132 62.8755C398.132 65.9325 397.18 71.2615 395.274 78.8626C393.369 86.4637 392.417 91.5861 392.417 94.23C392.417 96.7912 392.748 98.0718 393.411 98.0718C393.908 98.0718 395.647 97.2869 398.629 95.7171L400.12 94.9736L402.357 99.3111C401.611 99.9721 400.617 100.798 399.375 101.79C398.132 102.781 395.813 104.144 392.417 105.879C389.103 107.532 386.121 108.358 383.47 108.358C377.423 108.358 374.4 104.929 374.4 98.0718C374.4 95.1801 375.311 89.8511 377.133 82.0848C379.039 74.3185 379.991 69.3199 379.991 67.0892C379.991 64.8584 379.287 63.743 377.879 63.743C375.477 63.743 372.536 64.7758 369.057 66.8413C368.808 68.2459 367.98 71.9638 366.572 77.9951C363.673 90.9665 362.223 100.137 362.223 105.508C359.324 106.664 354.105 107.243 346.567 107.243Z" fill="#23404E"/>
<path d="M437.746 53.4568C437.58 55.5223 436.876 57.9183 435.634 60.6448C432.486 60.3143 429.504 60.1491 426.687 60.1491H424.451C420.64 78.5734 418.735 90.0576 418.735 94.6018C418.735 96.9978 419.232 98.1958 420.226 98.1958C421.303 98.1958 424.078 97.163 428.551 95.0975L430.788 99.1872C423.415 105.301 416.581 108.358 410.286 108.358C407.387 108.358 404.984 107.449 403.079 105.632C401.257 103.814 400.346 101.418 400.346 98.4436C400.346 95.3867 400.677 91.9579 401.34 88.1574C402.085 84.3568 403.079 79.7301 404.322 74.2771C405.564 68.7416 406.475 64.2801 407.055 60.8926C403.99 61.1405 401.712 61.3884 400.221 61.6362C400.056 60.6448 399.973 59.3229 399.973 57.6704C399.973 55.9354 400.097 54.5309 400.346 53.4568H408.173C408.836 48.9953 409.167 44.7817 409.167 40.8159L409.043 36.974V36.6022C415.504 34.3715 421.593 33.2561 427.309 33.2561C427.64 34.9085 427.806 36.974 427.806 39.4526C427.806 41.9313 427.101 46.5993 425.693 53.4568H437.746Z" fill="#23404E"/>
<path d="M427.547 85.4309C427.547 75.1033 430.654 66.9652 436.866 61.0166C443.162 54.9853 450.286 51.9696 458.238 51.9696C463.125 51.9696 467.143 53.1676 470.291 55.5636C473.438 57.9596 475.012 61.1818 475.012 65.2302C475.012 69.196 473.977 72.5421 471.906 75.2686C469.918 77.9951 467.474 80.1019 464.575 81.5891C458.694 84.4808 453.309 86.2984 448.422 87.042L445.44 87.4138C446.02 95.1801 449.209 99.0633 455.007 99.0633C456.995 99.0633 459.108 98.5676 461.344 97.5761C463.581 96.5847 465.32 95.5932 466.563 94.6018L468.427 93.1146L471.409 97.0804C470.746 97.9892 469.421 99.1872 467.433 100.674C465.445 102.162 463.581 103.401 461.841 104.392C457.037 107.036 451.777 108.358 446.061 108.358C440.345 108.358 435.831 106.334 432.518 102.285C429.204 98.2371 427.547 92.6189 427.547 85.4309ZM445.316 81.3412C449.54 80.5976 452.895 78.8213 455.38 76.0122C457.865 73.2031 459.108 69.5678 459.108 65.1063C459.108 60.6448 457.782 58.414 455.132 58.414C451.984 58.414 449.54 61.0992 447.801 66.4695C446.144 71.7572 445.316 76.7144 445.316 81.3412Z" fill="#23404E"/>
<path d="M509.826 90.636C509.826 95.8411 507.506 100.096 502.867 103.401C498.311 106.706 493.093 108.358 487.211 108.358C481.33 108.358 476.65 107.119 473.171 104.64C469.775 102.162 468.076 99.9721 468.076 98.0718C468.076 96.9151 469.526 95.0562 472.425 92.4949C475.325 89.8511 477.768 88.24 479.756 87.6617C483.898 90.7186 487.294 95.5519 489.945 102.162C493.01 101.914 494.542 100.468 494.542 97.824C494.542 94.0234 491.188 88.6531 484.478 81.713C477.768 74.6902 474.413 69.1134 474.413 64.9823C474.413 60.8513 476.277 57.6704 480.005 55.4397C483.732 53.1263 488.206 51.9696 493.424 51.9696C498.726 51.9696 502.702 52.9198 505.353 54.82C508.003 56.6377 509.329 59.1576 509.329 62.3798C509.329 65.5194 506.802 69.8983 501.749 75.5165C502.329 76.0948 503.075 76.8797 503.986 77.8711C504.897 78.78 506.098 80.5563 507.589 83.2001C509.08 85.844 509.826 88.3226 509.826 90.636ZM497.897 71.1789C501.376 68.2045 503.116 65.2715 503.116 62.3798C503.116 59.4881 501.128 58.0422 497.152 58.0422C495.247 58.0422 493.673 58.4553 492.43 59.2815C491.188 60.0251 490.566 60.8926 490.566 61.8841C490.566 63.7017 492.389 66.263 496.033 69.5678L497.897 71.1789Z" fill="#23404E"/>
<path d="M518.83 108.358C515.931 108.358 513.694 107.491 512.12 105.756C510.547 104.02 509.76 101.707 509.76 98.8154C509.76 95.9237 510.837 93.4451 512.99 91.3796C515.144 89.2314 517.67 88.1574 520.57 88.1574C523.552 88.1574 525.83 89.0249 527.404 90.7599C528.978 92.4123 529.764 94.6844 529.764 97.5761C529.764 100.385 528.646 102.905 526.41 105.136C524.256 107.284 521.729 108.358 518.83 108.358Z" fill="#23404E"/>
<path d="M590.406 99.3111C583.365 105.342 577.152 108.358 571.768 108.358C566.467 108.358 563.402 105.714 562.573 100.427C560.088 102.905 557.313 104.847 554.248 106.251C551.183 107.656 548.491 108.358 546.172 108.358C542.196 108.358 538.799 106.623 535.983 103.153C533.167 99.6829 531.758 94.3126 531.758 87.042C531.758 76.1361 534.078 67.5849 538.717 61.3884C543.355 55.1092 548.574 51.9696 554.373 51.9696C560.254 51.9696 565.183 53.2916 569.159 55.9354C571.727 42.5509 573.011 32.0168 573.011 24.3331L572.389 19.128C578.602 16.9799 584.69 15.9058 590.655 15.9058C591.317 17.3104 591.649 18.9215 591.649 20.7391C591.649 26.7704 589.826 39.0395 586.182 57.5465C582.537 75.9709 580.714 88.4879 580.714 95.0975C580.714 97.0804 581.17 98.0718 582.081 98.0718C582.578 98.0718 584.152 97.2869 586.803 95.7171L588.045 94.9736L590.406 99.3111ZM560.461 59.2815C557.562 59.2815 555.035 62.1319 552.882 67.8328C550.811 73.5336 549.775 79.1931 549.775 84.8112C549.775 90.3468 550.148 93.8995 550.893 95.4693C551.722 97.0391 552.923 97.824 554.497 97.824C557.23 97.824 559.923 96.7086 562.573 94.4778C562.822 91.173 564.686 80.1845 568.165 61.5123C565.348 60.0251 562.78 59.2815 560.461 59.2815Z" fill="#23404E"/>
<path d="M585.927 85.4309C585.927 75.1033 589.034 66.9652 595.246 61.0166C601.542 54.9853 608.666 51.9696 616.618 51.9696C621.505 51.9696 625.523 53.1676 628.67 55.5636C631.818 57.9596 633.392 61.1818 633.392 65.2302C633.392 69.196 632.357 72.5421 630.286 75.2686C628.298 77.9951 625.854 80.1019 622.955 81.5891C617.073 84.4808 611.689 86.2984 606.802 87.042L603.82 87.4138C604.4 95.1801 607.589 99.0633 613.387 99.0633C615.375 99.0633 617.488 98.5676 619.724 97.5761C621.961 96.5847 623.7 95.5932 624.943 94.6018L626.807 93.1146L629.789 97.0804C629.126 97.9892 627.801 99.1872 625.813 100.674C623.825 102.162 621.961 103.401 620.221 104.392C615.417 107.036 610.157 108.358 604.441 108.358C598.725 108.358 594.211 106.334 590.897 102.285C587.584 98.2371 585.927 92.6189 585.927 85.4309ZM603.695 81.3412C607.92 80.5976 611.275 78.8213 613.76 76.0122C616.245 73.2031 617.488 69.5678 617.488 65.1063C617.488 60.6448 616.162 58.414 613.512 58.414C610.364 58.414 607.92 61.0992 606.181 66.4695C604.524 71.7572 603.695 76.7144 603.695 81.3412Z" fill="#23404E"/>
<path d="M134.013 50.5247C129.333 33.0616 117.909 18.1725 102.252 9.1329C86.5945 0.0933126 67.9878 -2.35631 50.5247 2.32293C33.0616 7.00216 18.1725 18.4269 9.1329 34.084C0.0933135 49.741 -2.35631 68.3477 2.32293 85.8108C7.00216 103.274 18.4269 118.163 34.084 127.203C49.741 136.242 68.3477 138.692 85.8108 134.013C103.274 129.333 118.163 117.909 127.203 102.252C136.242 86.5945 138.692 67.9878 134.013 50.5247ZM54.1182 92.5023C53.3542 88.6672 51.531 85.1228 48.8553 82.2711C46.1796 79.4193 42.7585 77.3742 38.9797 76.3677L58.5179 62.5964L77.8176 73.7391L75.6377 97.5322C72.8773 94.7694 69.3989 92.8342 65.596 91.9453C61.793 91.0564 57.8172 91.2493 54.1182 92.5023ZM65.1894 125.762C57.8574 125.376 50.6667 123.592 44.0034 120.509L51.7345 107.118C53.1251 104.71 55.4158 102.952 58.1024 102.232C60.789 101.512 63.6515 101.889 66.0602 103.28C68.469 104.67 70.2266 106.961 70.9465 109.648C71.6664 112.334 71.2895 115.197 69.8988 117.605L65.1894 125.762ZM83.0918 123.883C81.301 124.363 79.5075 124.742 77.7127 125.046L84.2246 113.767C84.6047 113.11 84.836 112.378 84.9024 111.623L91.7393 36.8578C91.8293 35.8612 91.6323 34.8597 91.1715 33.9714C90.7107 33.0832 90.0053 32.3453 89.1387 31.845C88.2721 31.3446 87.2805 31.1027 86.2808 31.1478C85.2811 31.1928 84.3153 31.523 83.4972 32.0993L22.1673 75.4026C21.546 75.8379 21.0279 76.4043 20.6494 77.0617L14.1375 88.3406C13.4945 86.6215 12.9331 84.8729 12.4551 83.1007C9.50148 72.0813 9.8819 60.4335 13.5483 49.6304C17.2147 38.8272 24.0024 29.3539 33.0529 22.4086C42.1035 15.4632 53.0104 11.3577 64.3944 10.6113C75.7783 9.86493 87.1279 12.5112 97.0078 18.2153C106.888 23.9195 114.854 32.4255 119.9 42.6574C124.945 52.8894 126.843 64.3878 125.354 75.6985C123.864 87.0092 119.054 97.6241 111.531 106.201C104.009 114.778 94.1117 120.931 83.0918 123.883Z" fill="#23404E"/>
</svg>
