<svg id="retos" viewBox="0 0 128 128">
  <g id="sword">
    <path id="path1"
      d="m16.27 105.75-5.6-5.59a1.19 1.19 0 0 0-1.69 0l-2.5 2.49a1.2 1.2 0 0 0 0 1.7l.56.55a8 8 0 0 0 .58 4.16v.09a11.16 11.16 0 0 0 .59 1.16c.16.26.33.51.51.76l.19.26a11.72 11.72 0 0 0 .81.93 11.72 11.72 0 0 0 .93.81 2.48 2.48 0 0 0 .26.19c.25.18.5.35.76.51l.24.14a8.68 8.68 0 0 0 .92.45h.09a8.3 8.3 0 0 0 1.59.48l.53.1h1.15a6.65 6.65 0 0 0 .89-.06l.55.55a1.2 1.2 0 0 0 1.7 0l2.5-2.49a1.22 1.22 0 0 0 0-1.7Z"
      stroke="#fff" stroke-width="4" />
    <path id="path2"
      d="m80.83 58.19 26-26.06a6.11 6.11 0 0 0 1.74-3.68l1.25-14.66a1.44 1.44 0 0 0-.33-1.1.24.24 0 0 0-.09-.11 1.47 1.47 0 0 0-1.25-.46l-14.4 1.48a6.06 6.06 0 0 0-3.67 1.74l-10.2 10.18.73 3.61-3.75-.59L64 41.38 47.13 58.19 36.71 68.65l-10.15-7.34a1.22 1.22 0 0 0-1.57.13L19.45 67a1.2 1.2 0 0 0-.13 1.56L30.6 84.23l-17.92 17.92 3.59 3.6 3.6 3.6 17.92-17.93 15.68 11.27a1.2 1.2 0 0 0 1.57-.12L60.58 97a1.22 1.22 0 0 0 .13-1.57L51.2 82.3l-4.61-6.36 4.69 6.45 2.27 3.11L64 75Z"
      stroke="#fff" stroke-width="4" style="fill:#fff;fill-opacity:1" />
    <path id="path3" d="m38.09 91.13-18.22 18.22-7.19-7.2 18.21-18.21 1.63 2.28 1.37 1.92 2.31 1.65 1.89 1.34z"
      style="fill:#282827" />
    <path id="path4" d="m38.09 91.13-18.22 18.22-3.6-3.6 17.62-17.62 2.31 1.66 1.89 1.34z" style="fill:#323330" />
    <path id="path5" d="m35.92 90.07-2.31-1.66-1.37-1.9 1.36 1.91 2.32 1.65z" class="cls-4" />
    <path id="path6"
      d="M108.19 12.12 93.75 13.6a6.06 6.06 0 0 0-3.67 1.74l-10.2 10.18.73 3.61-3.75-.59L36.7 68.65l9.66 7 63.06-63.06a1.47 1.47 0 0 0-1.23-.47Z"
      style="fill:#939393" />
    <path id="path7"
      d="m51.28 82.39 2.27 3.11 14.34-14.36-.67-3.63 3.46.84 36.19-36.22a6.11 6.11 0 0 0 1.74-3.68l1.25-14.66a1.44 1.44 0 0 0-.33-1.1.24.24 0 0 0-.09-.11L46.38 75.64Z"
      style="fill:#bababa" />
    <path id="path8"
      d="M60.58 97 55 102.57a1.2 1.2 0 0 1-1.57.12L37.79 91.42l-1.87-1.35-2.31-1.65-1.36-1.9-1.65-2.29-11.28-15.69a1.2 1.2 0 0 1 .13-1.54L25 61.44a1.22 1.22 0 0 1 1.57-.13L46.32 75.6l4.88 6.7 9.51 13.16a1.22 1.22 0 0 1-.13 1.54Z"
      fill="#b7a23d" />
    <path id="path9" d="M17.13 115a7.48 7.48 0 0 1-3-.21 9.43 9.43 0 0 1-4.32-2.51A8.86 8.86 0 0 1 7 104.89Z"
      fill="#f0db4f" />
    <path id="path10"
      d="M7.25 107.94a9.52 9.52 0 0 0 2.51 4.32 8.9 8.9 0 0 0 7.37 2.74l-1.42-1.42c-1.21-.04-5.17-.53-8.46-5.64Z"
      style="fill:#f9e68a" />
    <rect id="rect10" width="5.93" height="18.23" x="11.21" y="98.73" rx="1.2" style="fill:#917f31"
      transform="rotate(-45 14.17 107.85)" />
    <path id="path11"
      d="M60.58 97 55 102.57a1.2 1.2 0 0 1-1.57.12L37.79 91.42l-1.87-1.35-2.31-1.65 12.77-12.77 4.82 6.65 9.51 13.16a1.22 1.22 0 0 1-.13 1.54Z"
      fill="#f0db4f" />
    <path id="path13" d="m21.87 113.05-2.5 2.49a1.2 1.2 0 0 1-1.7 0l-5.6-5.6 4.2-4.19 5.6 5.6a1.22 1.22 0 0 1 0 1.7Z"
      fill="#b7a23d" />
  </g>
  <path id="path14" d="m46.35 56.17 19.67 19.67-3.59 3.59-19.67-19.68zM65.26 37.3l19.63 19.64-3.58 3.59-19.64-19.64z"
    style="fill:#111;opacity:.16" />
  <use href="#sword" transform="translate(128, 0) scale(-1, 1)"></use>
</svg>
