<?xml version="1.0" standalone="no"?>
<!DOCTYPE svg PUBLIC "-//W3C//DTD SVG 20010904//EN"
 "http://www.w3.org/TR/2001/REC-SVG-20010904/DTD/svg10.dtd">
<svg version="1.0" xmlns="http://www.w3.org/2000/svg"
 width="400.000000pt" height="400.000000pt" viewBox="0 0 400.000000 400.000000"
 preserveAspectRatio="xMidYMid meet">
<metadata>
Created by potrace 1.11, written by Peter Selinger 2001-2013
</metadata>
<g transform="translate(0.000000,400.000000) scale(0.100000,-0.100000)"
fill="#000000" stroke="none">
<path d="M2705 3713 c-65 -8 -193 -54 -253 -91 -184 -111 -274 -281 -267 -505
5 -161 29 -229 114 -337 91 -114 202 -182 441 -272 58 -21 114 -42 125 -47 11
-5 56 -23 100 -41 150 -60 232 -121 275 -207 22 -42 25 -61 25 -148 0 -110
-15 -154 -72 -206 -131 -120 -411 -116 -567 9 -87 70 -155 202 -156 300 l0 42
-158 0 -158 0 1 -355 0 -355 158 0 157 0 0 95 0 96 33 -38 c17 -21 39 -43 47
-49 8 -7 26 -22 40 -34 34 -30 103 -64 175 -86 46 -14 92 -18 195 -18 137 0
220 14 286 49 16 8 33 15 37 15 14 0 110 66 148 102 75 70 132 163 165 273 26
84 26 308 0 380 -59 168 -171 291 -356 393 -30 16 -159 71 -287 122 -243 96
-330 143 -375 202 -55 72 -61 182 -14 262 30 52 49 68 115 101 69 35 96 40
211 39 80 0 104 -4 151 -26 129 -59 201 -172 212 -333 l2 -40 157 -2 157 -2 1
340 0 340 -157 -3 -158 -3 -1 -80 c-1 -44 -2 -84 -3 -89 0 -5 -14 9 -29 30
-60 82 -166 150 -270 173 -41 9 -185 11 -247 4z"/>
<path d="M1364 2968 c0 -645 -4 -803 -19 -877 -27 -137 -104 -249 -202 -293
-39 -18 -68 -22 -148 -22 -150 -1 -227 30 -318 128 -43 46 -113 178 -123 232
-4 20 -12 37 -18 40 -15 5 -300 -102 -304 -115 -2 -6 6 -39 19 -73 75 -216
190 -357 361 -442 128 -63 203 -79 368 -80 149 -1 201 5 282 33 228 78 364
251 423 536 26 127 28 183 28 920 l1 720 -175 3 -174 2 -1 -712z"/>
<path d="M610 940 l0 -160 155 0 155 0 0 160 0 160 -155 0 -155 0 0 -160z"/>
<path d="M1370 940 l0 -160 155 0 155 0 0 160 0 160 -155 0 -155 0 0 -160z"/>
<path d="M2280 940 l0 -160 155 0 155 0 0 160 0 160 -155 0 -155 0 0 -160z"/>
<path d="M2670 940 l0 -160 155 0 155 0 0 160 0 160 -155 0 -155 0 0 -160z"/>
<path d="M990 550 l0 -160 155 0 155 0 0 160 0 160 -155 0 -155 0 0 -160z"/>
<path d="M2280 550 l0 -160 155 0 155 0 0 160 0 160 -155 0 -155 0 0 -160z"/>
<path d="M3050 550 l0 -160 155 0 155 0 0 160 0 160 -155 0 -155 0 0 -160z"/>
</g>
</svg>
